<?xml version="1.0" encoding="utf-8"?><!DOCTYPE svg PUBLIC "-//W3C//DTD SVG 1.1//EN" "http://www.w3.org/Graphics/SVG/1.1/DTD/svg11.dtd"><svg version="1.1" xmlns:sodipodi="http://sodipodi.sourceforge.net/DTD/sodipodi-0.dtd" xmlns:rdf="http://www.w3.org/1999/02/22-rdf-syntax-ns#" xmlns:dc="http://purl.org/dc/elements/1.1/" xmlns:cc="http://creativecommons.org/ns#" xmlns:inkscape="http://www.inkscape.org/namespaces/inkscape" xmlns:svg="http://www.w3.org/2000/svg" xmlns="http://www.w3.org/2000/svg" xmlns:xlink="http://www.w3.org/1999/xlink" x="0px" y="0px" viewBox="0.179 2.162 100 122.72" enable-background="new 0.179 2.162 100 98.176" xml:space="preserve"><g transform="translate(0,-952.36218)"><g transform="matrix(2.7295918,0,0,-3.2303549,-1278.0381,2185.2761)"><path d="M489.938,375.482c1.523,0,2.759,1.229,2.759,2.754
			c0,1.522-1.236,2.76-2.759,2.76c-1.521,0-2.761-1.239-2.761-2.76C487.178,376.712,488.417,375.482,489.938,375.482"/><path d="M490.054,368.788c-0.401-0.01-0.834,0.191-1.15,0.691l-1.791,2.804
			l-3.698-3.662l3.429-1.804c1.41-0.677,1.197-1.913,1.197-1.913v-7.764c0-0.878-0.712-1.596-1.59-1.596
			c-0.879,0-1.589,0.718-1.589,1.596v6.214l-5.941,3.303c-0.709,0.394-1.19,1.154-1.19,2.016c0,0.595,0.218,1.14,0.594,1.547
			l5.834,5.845c0.719,0.818,1.734,0.687,1.734,0.687c1.22,0,1.863-1.066,1.863-1.066l3.027-4.749l4.605,0.01
			c1.65,0,1.65-2.158,0-2.158H490.054L490.054,368.788"/><path d="M497.4,365.649c-4.156,0-7.529-3.361-7.529-7.52
			c0-4.16,3.373-7.524,7.529-7.524c4.145,0,7.516,3.364,7.516,7.524C504.917,362.287,501.545,365.649,497.4,365.649z
			 M497.396,352.656c-3.02,0-5.471,2.447-5.471,5.472c0,3.021,2.451,5.469,5.471,5.469c3.015,0,5.471-2.448,5.471-5.469
			C502.866,355.103,500.41,352.656,497.396,352.656"/><path d="M475.797,365.649c-4.142,0-7.515-3.363-7.515-7.52
			c0-4.159,3.373-7.524,7.515-7.524c4.16,0,7.529,3.365,7.529,7.524C483.326,362.286,479.956,365.649,475.797,365.649z
			 M475.799,352.656c-3.016,0-5.467,2.45-5.465,5.474c0,3.018,2.449,5.468,5.465,5.468c3.022,0,5.476-2.45,5.476-5.468
			C481.275,355.106,478.822,352.656,475.799,352.656"/></g></g><text x="0.179" y="115.33800000000001" fill="#000000" font-size="5px" font-weight="bold" font-family="'Helvetica Neue', Helvetica, Arial-Unicode, Arial, Sans-serif">Created by Andrew Jones</text><text x="0.179" y="120.33800000000001" fill="#000000" font-size="5px" font-weight="bold" font-family="'Helvetica Neue', Helvetica, Arial-Unicode, Arial, Sans-serif">from the Noun Project</text></svg>