<svg height='100px' width='100px'  fill="#000000" xmlns="http://www.w3.org/2000/svg" xmlns:xlink="http://www.w3.org/1999/xlink" version="1.1" x="0px" y="0px" viewBox="0 0 100 100" style="enable-background:new 0 0 100 100;" xml:space="preserve"><style type="text/css">
	.st0{fill-rule:evenodd;clip-rule:evenodd;}
</style><path class="st0" d="M50.5,9.1c0,4-3.1,7.1-7.1,7.1c-4,0-7.1-3.1-7.1-7.1S39.3,2,43.3,2C47.3,2,50.5,5.1,50.5,9.1 M73.5,29.2  c0,0-8.6-4.9-12.5-6.9c-3.8-2.1-11.4-7.3-18.2-1.2C39.8,23.8,36.2,38,36.2,38l-14.3,9l2.4,3.3l15.6-5.7l4.4-5.7l4.6,10.3l-9.3,16.5  l-7.4,27.8l7.6,2.6L48.3,70l6.3-6.3l13.9,33.1l6.7-3.1L63.9,53.4c0,0,1.4-2.9,1.4-7.5c0-5.3-4.1-13.9-4.1-13.9l6.7,1.6l1.5,17.2  l4.3,0.4L73.5,29.2"></path></svg>